<svg width="48" height="220" viewBox="0 0 48 220" fill="none" xmlns="http://www.w3.org/2000/svg">
<path d="M6.67635e-07 -0.00012269C3.92102e-07 3.1516 0.620776 6.27246 1.82689 9.18428C3.033 12.0961 4.80083 14.7418 7.02944 16.9704C9.25804 19.199 11.9038 20.9669 14.8156 22.173C17.7274 23.3791 20.8483 23.9999 24 23.9999C27.1517 23.9999 30.2726 23.3791 33.1844 22.173C36.0962 20.9669 38.742 19.199 40.9706 16.9704C43.1992 14.7418 44.967 12.0961 46.1731 9.18428C47.3792 6.27247 48 3.1516 48 -0.000121037L6.67635e-07 -0.00012269Z" fill="white"/>
<path d="M48 220C48 216.848 47.3792 213.727 46.1731 210.815C44.967 207.904 43.1992 205.258 40.9706 203.029C38.742 200.801 36.0962 199.033 33.1844 197.827C30.2726 196.621 27.1517 196 24 196C20.8483 196 17.7274 196.621 14.8156 197.827C11.9038 199.033 9.25804 200.801 7.02944 203.029C4.80083 205.258 3.033 207.904 1.82689 210.815C0.620778 213.727 -2.75532e-07 216.848 0 220L48 220Z" fill="white"/>
<line x1="25" y1="31.9999" x2="25" y2="188" stroke="white" stroke-width="2" stroke-dasharray="5 5"/>
</svg>
